<svg xmlns="http://www.w3.org/2000/svg" width="78.968" height="59.537" viewBox="0 0 78.968 59.537">
  <g id="XMLID_1715_" transform="translate(-0.5 -66.873)">
    <g id="XMLID_5_" transform="translate(1 67.41)">
      <path id="XMLID_6_" d="M247.625,274.13a1.625,1.625,0,1,0-1.149-.476A1.636,1.636,0,0,0,247.625,274.13Z" transform="translate(-208.641 -239.497)" fill="#fa83ff" stroke="#f60bff" stroke-width="1"/>
      <path id="XMLID_448_" d="M247.625,233.63a1.625,1.625,0,1,0-1.149-.476A1.636,1.636,0,0,0,247.625,233.63Z" transform="translate(-208.641 -205.114)" fill="#fa83ff" stroke="#f60bff" stroke-width="1"/>
      <path id="XMLID_1039_" d="M247.625,193.13a1.625,1.625,0,1,0-1.149-.476A1.636,1.636,0,0,0,247.625,193.13Z" transform="translate(-208.641 -170.732)" fill="#fa83ff" stroke="#f60bff" stroke-width="1"/>
      <path id="XMLID_1043_" d="M76.445,80.141a17.935,17.935,0,0,0-10.9,3.692V72.786a1.52,1.52,0,0,0-1.523-1.516A14.942,14.942,0,0,0,51.044,78.8a28.084,28.084,0,0,0-11.2-15.423,1.528,1.528,0,0,0-1.718,0A28.084,28.084,0,0,0,26.924,78.8,14.942,14.942,0,0,0,13.947,71.27a1.52,1.52,0,0,0-1.523,1.516V83.833a17.935,17.935,0,0,0-10.9-3.692A1.52,1.52,0,0,0,0,81.658v3.774a24.646,24.646,0,0,0,20.9,24.287,9.6,9.6,0,0,0-2.933,6.909V120.1a1.524,1.524,0,0,0,2.29,1.31l2.815-1.634a16.717,16.717,0,0,1,8.381-2.255,9.01,9.01,0,0,0,6.409-2.648,9.117,9.117,0,0,0,1.12-1.358,9.125,9.125,0,0,0,1.12,1.358,9.01,9.01,0,0,0,6.409,2.648,16.716,16.716,0,0,1,8.381,2.255l2.815,1.634A1.523,1.523,0,0,0,60,120.1v-3.473a9.606,9.606,0,0,0-2.935-6.911,24.716,24.716,0,0,0,7.916-2.637,1.518,1.518,0,1,0-1.445-2.67,21.722,21.722,0,0,1-9.348,2.543A22.663,22.663,0,0,0,65.536,87.938a14.862,14.862,0,0,1,9.386-4.686v2.179a21.516,21.516,0,0,1-2.474,10.014,1.521,1.521,0,0,0,2.7,1.412,24.549,24.549,0,0,0,2.824-11.426V81.658a1.52,1.52,0,0,0-1.523-1.516ZM38.984,66.5a24.96,24.96,0,0,1,0,40.13,24.96,24.96,0,0,1,0-40.13ZM15.469,74.4A11.863,11.863,0,0,1,25.824,86.131h.007c0,.143-.007.286-.007.43a27.992,27.992,0,0,0,8.841,20.4,19.689,19.689,0,0,1-19.2-19.62ZM3.046,85.431V83.252a14.861,14.861,0,0,1,9.386,4.686,22.663,22.663,0,0,0,11.351,19.014A21.607,21.607,0,0,1,3.046,85.431Zm28.41,29.058a19.778,19.778,0,0,0-9.915,2.667l-.526.305v-.834a6.643,6.643,0,0,1,6.65-6.622h9.607a6,6,0,0,1-5.816,4.483Zm25.5,2.972-.526-.305a19.778,19.778,0,0,0-9.915-2.667,6,6,0,0,1-5.816-4.483H50.3a6.643,6.643,0,0,1,6.65,6.622ZM62.5,87.346a19.689,19.689,0,0,1-19.2,19.62,27.992,27.992,0,0,0,8.841-20.4c0-.144,0-.287-.007-.43h.007A11.863,11.863,0,0,1,62.5,74.4Z" transform="translate(0 -63.117)" fill="#fa83ff" stroke="#f60bff" stroke-width="1"/>
      <path id="XMLID_1064_" d="M449.625,307.25a1.623,1.623,0,1,0,1.149.476A1.627,1.627,0,0,0,449.625,307.25Z" transform="translate(-380.431 -270.373)" fill="#fa83ff" stroke="#f60bff" stroke-width="1"/>
    </g>
  </g>
</svg>
