<svg xmlns="http://www.w3.org/2000/svg" width="87.043" height="54.822" viewBox="0 0 87.043 54.822">
  <g id="money" transform="translate(0.5 -75.1)">
    <g id="Сгруппировать_8" data-name="Сгруппировать 8" transform="translate(0 75.6)">
      <g id="Сгруппировать_7" data-name="Сгруппировать 7">
        <path id="Контур_4" data-name="Контур 4" d="M85.8,104.9c-.445-1.885-2.723-3.4-6.851-4.521A53.577,53.577,0,0,0,66.348,98.8l-.462-17.44c-.634-1.716-2.911-3.111-6.765-4.153A56.5,56.5,0,0,0,44.957,75.6,54.978,54.978,0,0,0,30.93,77.209c-3.1.858-6.816,2.452-6.816,5.2a2.534,2.534,0,0,0,.051.506l.188,6.988a23.047,23.047,0,0,0-3.853-.322C9.2,89.577,0,97.806,0,107.921c0,10.13,9.163,18.344,20.483,18.344a22.072,22.072,0,0,0,12.93-4.107,56.91,56.91,0,0,0,11.012,1.073c.873,4.245,11.166,6.191,20.757,6.191A55.259,55.259,0,0,0,79.227,127.8c3.134-.858,6.816-2.467,6.816-5.211ZM31.889,80.152a51.53,51.53,0,0,1,13.033-1.487A53.321,53.321,0,0,1,58.11,80.152c3.734,1.011,4.538,2.054,4.538,2.268s-.8,1.257-4.538,2.268a53.813,53.813,0,0,1-13.17,1.487A52.259,52.259,0,0,1,32.317,84.8c-3.682-.95-4.727-2.008-4.813-2.345,0-.015-.017-.031-.034-.046C27.471,82.083,28.618,81.056,31.889,80.152Zm31.033,6.053v3.831a1.435,1.435,0,0,0-.274.858c0,.2-.8,1.257-4.521,2.268a53.076,53.076,0,0,1-13.17,1.487A54.515,54.515,0,0,1,33.294,93.5c-.051-.015-.1-.015-.137-.031a20.381,20.381,0,0,0-5.343-2.713l-.12-4.322a20.386,20.386,0,0,0,3.7,1.272,56.257,56.257,0,0,0,13.581,1.487A56.261,56.261,0,0,0,59.12,87.584,18.056,18.056,0,0,0,62.922,86.205ZM31.975,119.216A18.5,18.5,0,0,1,7.861,118.2a14.182,14.182,0,0,1,1.13-21.578,18.275,18.275,0,0,1,11.492-3.985,19.346,19.346,0,0,1,5.052.674A17.307,17.307,0,0,1,31.6,96.335a15.028,15.028,0,0,1,5.617,8.506,14.18,14.18,0,0,1-5.241,14.375Zm4.35.337a18.165,18.165,0,0,0,3.288-5.042c1.473.107,3.014.184,4.607.2a1.413,1.413,0,0,0,0,.536l.069,4.935A58.089,58.089,0,0,1,36.325,119.553ZM40.9,106.1c1.01.061,2.055.092,3.134.107a2.237,2.237,0,0,0,.086.322l.069,5.1c-1.233-.015-2.449-.061-3.6-.138a16.927,16.927,0,0,0,.394-3.586C40.983,107.308,40.949,106.71,40.9,106.1Zm4.179-2.942H44.94c-1.661,0-3.237-.061-4.71-.169a17.7,17.7,0,0,0-3.048-5.7,69.065,69.065,0,0,0,7.758.444A56.261,56.261,0,0,0,59.086,96.12a19.375,19.375,0,0,0,3.819-1.41V98.8a53.869,53.869,0,0,0-11.509,1.41Q46.875,101.362,45.077,103.155Zm2.363,2.283c.291-.475,1.576-1.41,4.915-2.237a52.734,52.734,0,0,1,12.314-1.3h.137a53.092,53.092,0,0,1,13.17,1.456c3.6.981,4.47,1.962,4.521,2.222v.015c-.017.23-.856,1.287-4.658,2.3a53.011,53.011,0,0,1-13.033,1.441,54.421,54.421,0,0,1-12.262-1.272c-3.22-.782-4.607-1.686-5.018-2.207A1.192,1.192,0,0,0,47.44,105.438Zm35.178,17.134c0,.215-.754,1.272-4.4,2.283a51.116,51.116,0,0,1-13.05,1.5,51.874,51.874,0,0,1-13-1.456c-3.271-.9-4.367-1.916-4.367-2.253v-.031l-.017-.935-.051-3.464A22.823,22.823,0,0,0,52,119.6a58.3,58.3,0,0,0,12.811,1.3,55.833,55.833,0,0,0,14.1-1.609,16.357,16.357,0,0,0,3.716-1.395Zm-.223-8.49c0,.215-.788,1.257-4.47,2.268a52.548,52.548,0,0,1-13.136,1.471c-9.317,0-15.654-1.854-17.126-3.326l-.069-4.843c4.042,1.885,10.841,2.743,17.212,2.743a56.814,56.814,0,0,0,13.975-1.563,20.049,20.049,0,0,0,3.853-1.395v3.831h0C82.618,113.5,82.4,113.775,82.4,114.082Z" transform="translate(0 -75.6)" fill="#fa83ff" stroke="#f60bff" stroke-width="1"/>
      </g>
    </g>
    <g id="Сгруппировать_10" data-name="Сгруппировать 10" transform="translate(9.847 95.164)">
      <g id="Сгруппировать_9" data-name="Сгруппировать 9" transform="translate(0 0)">
        <path id="Контур_5" data-name="Контур 5" d="M65.8,220.4a12.1,12.1,0,1,0,12.1,12.1A12.1,12.1,0,0,0,65.8,220.4Zm0,20.557a8.435,8.435,0,1,1,8.435-8.435A8.437,8.437,0,0,1,65.8,240.957Z" transform="translate(-53.7 -220.4)" fill="#fa83ff" stroke="#f60bff" stroke-width="1"/>
      </g>
    </g>
  </g>
</svg>
